# xmcd
#
# Track frame offsets: 
#        150
#        32068
#        66082
#        91471
#        114910
#        129630
#        154657
#        182184
#        201964
#        245238
#        281869
#        300883
#
# Disc length: 4241 seconds
#
# Revision: 1
# Processed by: cddbd v1.5.2PL0 Copyright (c) Steve Scherf et al.
# Submitted via: ExactAudioCopy v1.1
#
DISCID=a9108f0c
DTITLE=Various Artist - The Best Of Newport '57 [CD1]
DYEAR=2007
DGENRE=Jazz
TTITLE0=Eddie Costa Trio - There Will Be Never Another You
TTITLE1=Cecil Taylor Quartet - Nona's Blues
TTITLE2=Don Elliott Quartet - 'S Wonderful
TTITLE3=Turk Murphy Band - St. James Infirmary
TTITLE4=Billie Holiday - Lady Sings The Blues
TTITLE5=Gerry Mulligan Quartet - My Funny Valentine
TTITLE6=Dizzy Gillespie Orchestra - Doodlin'
TTITLE7=Teddy Wilson Trio - I Got Rythm
TTITLE8=Oscar Peterson Trio - Roys Son
TTITLE9=Count Basie Orchestra - Swingin' At Newport
TTITLE10=Joe Williams And The Count Basie Orchestra - The Comeback
TTITLE11=Jimmy Rushing And The Count Basie Orchestra - Boogie Woogie
EXTD=YEAR: 2007
EXTT0=
EXTT1=
EXTT2=
EXTT3=
EXTT4=
EXTT5=
EXTT6=
EXTT7=
EXTT8=
EXTT9=
EXTT10=
EXTT11=
PLAYORDER=
